<svg width="134" height="86" viewBox="0 0 134 86" fill="none" xmlns="http://www.w3.org/2000/svg">
<path fill-rule="evenodd" clip-rule="evenodd" d="M0.777369 32.3075C1.57994 43.2513 9.18195 52.0194 23.5836 58.6113C40.8565 39.3694 66.9505 19.9991 101.865 0.499939C77.8318 10.455 54.5887 23.0749 32.1354 38.3604C24.237 31.7046 20.9478 26.3485 22.2677 22.2916C24.1067 16.8523 28.565 15.238 35.6436 17.4489C31.0877 16.7834 28.685 17.5815 28.4346 19.8431C28.2219 21.3165 29.0926 22.2025 30.0459 22.8397C31.6762 23.9294 33.7905 24.072 37.2324 23.7222C40.4139 23.422 43.0633 24.4493 45.1813 26.8037C46.3054 27.4061 46.8717 26.819 46.8806 25.0427C48.7708 25.1138 49.9767 24.9855 50.4989 24.6577C41.8712 19.3 35.8043 15.0074 32.2987 11.7804C29.5024 9.76276 33.6736 8.1177 33.85 7.58327C20.7914 5.87976 12.6067 9.65533 9.5486 14.1468C3.09785 19.5259 0.173961 25.5795 0.777369 32.3075Z" fill="#354250"/>
<path fill-rule="evenodd" clip-rule="evenodd" d="M97.7977 25.1328C78.2588 29.209 50.9957 46.0296 16.0088 75.5947C49.4506 38.6762 77.2236 18.4236 99.3322 14.8416C116.712 12.6772 127.968 18.18 133.101 31.3508C134.883 42.157 124.723 53.7501 102.621 66.1298C88.7801 74.2821 77.5239 80.739 68.8527 85.5001C56.9843 80.5097 46.0204 74.4932 35.9613 67.4503C61.8162 47.4113 79.3585 37.3591 88.5878 37.2939C94.5062 36.3414 97.777 38.359 98.4006 43.3467C98.2143 46.2902 96.5334 48.6013 93.3575 50.2809C93.7865 46.2013 92.1784 43.5601 88.5332 42.3564C82.7454 41.329 79.0177 42.8698 77.3502 46.9787C74.2628 55.1747 71.6317 59.9624 69.4561 61.3417C65.485 63.2969 63.8222 65.0579 64.4677 66.6246C65.2828 68.6991 66.032 69.9098 66.7153 70.2566C67.7969 68.7174 68.8017 67.7636 69.7302 67.395C70.5547 68.1307 69.6594 69.7999 67.0441 72.4029C68.162 73.4266 69.6052 73.353 71.3748 72.1827C89.1272 60.6755 100.676 53.4116 106.021 50.3907C107.666 49.6206 109.567 50.5194 111.722 53.0871C112.182 50.0149 112.511 46.2732 112.708 41.8618C117.046 34.0253 117.411 28.7425 113.805 26.0133C108.903 23.6476 103.567 23.3541 97.7977 25.1328Z" fill="#354250"/>
</svg>
