<svg width="134" height="85" viewBox="0 0 134 85" fill="none" xmlns="http://www.w3.org/2000/svg">
<path fill-rule="evenodd" clip-rule="evenodd" d="M0.777369 31.8075C1.57994 42.7513 9.18195 51.5194 23.5836 58.1113C40.8565 38.8694 66.9505 19.4991 101.865 -6.10352e-05C77.8318 9.95502 54.5887 22.5749 32.1354 37.8604C24.237 31.2046 20.9478 25.8485 22.2677 21.7916C24.1067 16.3523 28.565 14.738 35.6436 16.9489C31.0877 16.2834 28.685 17.0815 28.4346 19.3431C28.2219 20.8165 29.0926 21.7025 30.0459 22.3397C31.6762 23.4294 33.7905 23.572 37.2324 23.2222C40.4139 22.922 43.0633 23.9493 45.1813 26.3037C46.3054 26.9061 46.8717 26.319 46.8806 24.5427C48.7708 24.6138 49.9767 24.4855 50.4989 24.1577C41.8712 18.8 35.8043 14.5074 32.2987 11.2804C29.5024 9.26276 33.6736 7.6177 33.85 7.08327C20.7914 5.37976 12.6067 9.15533 9.5486 13.6468C3.09785 19.0259 0.173961 25.0795 0.777369 31.8075Z" fill="#354250"/>
<path fill-rule="evenodd" clip-rule="evenodd" d="M97.7976 24.6328C78.2587 28.709 50.9956 45.5296 16.0087 75.0947C49.4505 38.1762 77.2234 17.9236 99.332 14.3416C116.712 12.1772 127.968 17.68 133.101 30.8508C134.882 41.657 124.723 53.2501 102.621 65.6298C88.7799 73.7821 77.5238 80.239 68.8526 85.0001C56.9842 80.0097 46.0203 73.9932 35.9612 66.9503C61.8161 46.9113 79.3584 36.8591 88.5877 36.7939C94.5061 35.8414 97.7769 37.859 98.4005 42.8467C98.2142 45.7902 96.5332 48.1013 93.3574 49.7809C93.7864 45.7013 92.1782 43.0601 88.5331 41.8564C82.7453 40.829 79.0176 42.3698 77.35 46.4787C74.2627 54.6747 71.6315 59.4624 69.4559 60.8417C65.4849 62.7969 63.822 64.5579 64.4676 66.1246C65.2826 68.1991 66.0319 69.4098 66.7152 69.7566C67.7968 68.2174 68.8016 67.2636 69.7301 66.895C70.5546 67.6307 69.6592 69.2999 67.044 71.9029C68.1618 72.9266 69.6051 72.853 71.3746 71.6827C89.1271 60.1755 100.676 52.9116 106.021 49.8907C107.666 49.1206 109.567 50.0194 111.722 52.5871C112.182 49.5149 112.511 45.7732 112.708 41.3618C117.046 33.5253 117.411 28.2425 113.805 25.5133C108.903 23.1476 103.567 22.8541 97.7976 24.6328Z" fill="#354250"/>
</svg>
