<svg width="24" height="25" viewBox="0 0 24 25" fill="none" xmlns="http://www.w3.org/2000/svg">
<mask id="mask0_1_101" style="mask-type:alpha" maskUnits="userSpaceOnUse" x="0" y="0" width="24" height="25">
<rect y="0.333282" width="24" height="24" fill="#D9D9D9"/>
</mask>
<g mask="url(#mask0_1_101)">
<path d="M3 12.0011C3 10.4363 3 9.65389 3.41382 9.11507C3.51993 8.97691 3.64363 8.85321 3.78179 8.74711C4.32061 8.33328 5.103 8.33328 6.66777 8.33328H6.76194C7.44935 8.33328 7.79306 8.33328 8.1056 8.43932C8.25456 8.48986 8.39705 8.5578 8.53009 8.64173C8.80924 8.81782 9.0256 9.08488 9.45833 9.619V9.619C9.89107 10.1531 10.1074 10.4202 10.3866 10.5963C10.5196 10.6802 10.6621 10.7481 10.8111 10.7987C11.1236 10.9047 11.4673 10.9047 12.1547 10.9047H14C15.8856 10.9047 16.8284 10.9047 17.4142 11.4905C18 12.0763 18 13.0191 18 14.9047V16.3333C18 18.2189 18 19.1617 17.4142 19.7475C16.8284 20.3333 15.8856 20.3333 14 20.3333H7C5.11438 20.3333 4.17157 20.3333 3.58579 19.7475C3 19.1617 3 18.2189 3 16.3333V12.0011Z" stroke="black" stroke-width="1.8"/>
<path d="M21 15.3333V9.90471C21 8.01909 21 7.07628 20.4142 6.4905C19.8284 5.90471 18.8856 5.90471 17 5.90471H15.1547C14.4673 5.90471 14.1236 5.90471 13.8111 5.79867C13.6621 5.74813 13.5196 5.68019 13.3866 5.59626C13.1074 5.42017 12.8911 5.15311 12.4583 4.619V4.619C12.0256 4.08488 11.8092 3.81782 11.5301 3.64173C11.397 3.5578 11.2546 3.48986 11.1056 3.43932C10.7931 3.33328 10.4493 3.33328 9.76194 3.33328H8.57143C8.04025 3.33328 7.77465 3.33328 7.55496 3.38343C6.80597 3.55438 6.2211 4.13925 6.05014 4.88824C6 5.10794 6 5.37353 6 5.90471V5.90471" stroke="black" stroke-width="1.8" stroke-linecap="round"/>
</g>
</svg>
