<svg width="24" height="25" viewBox="0 0 24 25" fill="none" xmlns="http://www.w3.org/2000/svg">
<mask id="mask0_76_1927" style="mask-type:alpha" maskUnits="userSpaceOnUse" x="0" y="0" width="24" height="25">
<rect y="0.333252" width="24" height="24" fill="#D9D9D9"/>
</mask>
<g mask="url(#mask0_76_1927)">
<path d="M3 12.001C3 10.4362 3 9.65386 3.41382 9.11504C3.51993 8.97688 3.64363 8.85318 3.78179 8.74707C4.32061 8.33325 5.103 8.33325 6.66777 8.33325H6.76194C7.44935 8.33325 7.79306 8.33325 8.1056 8.43929C8.25456 8.48983 8.39705 8.55777 8.53009 8.6417C8.80924 8.81779 9.0256 9.08485 9.45833 9.61897V9.61897C9.89107 10.1531 10.1074 10.4201 10.3866 10.5962C10.5196 10.6802 10.6621 10.7481 10.8111 10.7986C11.1236 10.9047 11.4673 10.9047 12.1547 10.9047H14C15.8856 10.9047 16.8284 10.9047 17.4142 11.4905C18 12.0763 18 13.0191 18 14.9047V16.3333C18 18.2189 18 19.1617 17.4142 19.7475C16.8284 20.3333 15.8856 20.3333 14 20.3333H7C5.11438 20.3333 4.17157 20.3333 3.58579 19.7475C3 19.1617 3 18.2189 3 16.3333V12.001Z" stroke="white" stroke-width="1.8"/>
<path d="M21 15.3333V9.90468C21 8.01906 21 7.07625 20.4142 6.49047C19.8284 5.90468 18.8856 5.90468 17 5.90468H15.1547C14.4673 5.90468 14.1236 5.90468 13.8111 5.79864C13.6621 5.7481 13.5196 5.68016 13.3866 5.59623C13.1074 5.42014 12.8911 5.15308 12.4583 4.61897V4.61897C12.0256 4.08485 11.8092 3.81779 11.5301 3.6417C11.397 3.55777 11.2546 3.48983 11.1056 3.43929C10.7931 3.33325 10.4493 3.33325 9.76194 3.33325H8.57143C8.04025 3.33325 7.77465 3.33325 7.55496 3.3834C6.80597 3.55435 6.2211 4.13922 6.05014 4.88821C6 5.10791 6 5.3735 6 5.90468V5.90468" stroke="white" stroke-width="1.8" stroke-linecap="round"/>
</g>
</svg>
