<svg width="24" height="25" viewBox="0 0 24 25" fill="none" xmlns="http://www.w3.org/2000/svg">
<path d="M21 18.1666V13.5793C21 11.6579 21 10.6972 20.5933 9.86556C20.1865 9.03392 19.4282 8.44411 17.9115 7.26448L16.9115 6.4867C14.5521 4.65162 13.3724 3.73407 12 3.73407C10.6276 3.73407 9.44787 4.65161 7.08848 6.4867L6.08847 7.26448L6.08847 7.26448C4.57181 8.44411 3.81348 9.03392 3.40674 9.86556C3 10.6972 3 11.6579 3 13.5793V18.1666C3 20.0522 3 20.9951 3.58579 21.5808C4.17157 22.1666 5.11438 22.1666 7 22.1666H8.5H15.5H17C18.8856 22.1666 19.8284 22.1666 20.4142 21.5808C21 20.9951 21 20.0522 21 18.1666Z" stroke="#E8EDF5" stroke-width="1.8"/>
<path d="M12 21.6666V17.6666" stroke="#E8EDF5" stroke-width="1.8" stroke-linecap="round" stroke-linejoin="round"/>
</svg>
