<svg width="24" height="25" viewBox="0 0 24 25" fill="none" xmlns="http://www.w3.org/2000/svg">
<path d="M21 18.1667V13.5794C21 11.658 21 10.6973 20.5933 9.86562C20.1865 9.03398 19.4282 8.44417 17.9115 7.26454L16.9115 6.48676C14.5521 4.65168 13.3724 3.73413 12 3.73413C10.6276 3.73413 9.44787 4.65168 7.08848 6.48676L6.08847 7.26454L6.08847 7.26454C4.57181 8.44417 3.81348 9.03398 3.40674 9.86562C3 10.6973 3 11.658 3 13.5794V18.1667C3 20.0523 3 20.9951 3.58579 21.5809C4.17157 22.1667 5.11438 22.1667 7 22.1667H8.5H15.5H17C18.8856 22.1667 19.8284 22.1667 20.4142 21.5809C21 20.9951 21 20.0523 21 18.1667Z" stroke="#E8EDF5" stroke-width="1.8"/>
<path d="M12 21.6667V17.6667" stroke="#E8EDF5" stroke-width="1.8" stroke-linecap="round" stroke-linejoin="round"/>
</svg>
