<svg width="24" height="25" viewBox="0 0 24 25" fill="none" xmlns="http://www.w3.org/2000/svg">
<path d="M19.7942 8.18669L12.8257 3.25143C12.331 2.90108 11.669 2.90108 11.1743 3.25143L4.20584 8.18669C3.44952 8.72233 3 9.59153 3 10.5183V19.8095C3 21.3875 4.27919 22.6667 5.85714 22.6667H8C8.78898 22.6667 9.42857 22.0271 9.42857 21.2381V19.0953C9.42857 18.3063 10.0682 17.6667 10.8571 17.6667H13.1429C13.9318 17.6667 14.5714 18.3063 14.5714 19.0953V21.2381C14.5714 22.0271 15.211 22.6667 16 22.6667H18.1429C19.7208 22.6667 21 21.3875 21 19.8095V10.5183C21 9.59153 20.5505 8.72233 19.7942 8.18669Z" fill="#E8EDF5"/>
</svg>
