<svg width="24" height="25" viewBox="0 0 24 25" fill="none" xmlns="http://www.w3.org/2000/svg">
<path d="M19.7942 8.18663L12.8257 3.25137C12.331 2.90102 11.669 2.90102 11.1743 3.25137L4.20584 8.18663C3.44952 8.72227 3 9.59147 3 10.5182V19.8095C3 21.3874 4.27919 22.6666 5.85714 22.6666H8C8.78898 22.6666 9.42857 22.027 9.42857 21.2381V19.0952C9.42857 18.3062 10.0682 17.6666 10.8571 17.6666H13.1429C13.9318 17.6666 14.5714 18.3062 14.5714 19.0952V21.2381C14.5714 22.027 15.211 22.6666 16 22.6666H18.1429C19.7208 22.6666 21 21.3874 21 19.8095V10.5182C21 9.59147 20.5505 8.72227 19.7942 8.18663Z" fill="#E8EDF5"/>
</svg>
