<svg width="24" height="25" viewBox="0 0 24 25" fill="none" xmlns="http://www.w3.org/2000/svg">
<mask id="mask0_40_1378" style="mask-type:alpha" maskUnits="userSpaceOnUse" x="0" y="0" width="24" height="25">
<rect y="0.333252" width="24" height="24" fill="#D9D9D9"/>
</mask>
<g mask="url(#mask0_40_1378)">
<path d="M6 9.33325C6 8.40425 6 7.93974 6.06156 7.55108C6.40042 5.41162 8.07837 3.73367 10.2178 3.39481C10.6065 3.33325 11.071 3.33325 12 3.33325V3.33325C12.929 3.33325 13.3935 3.33325 13.7822 3.39481C15.9216 3.73367 17.5996 5.41162 17.9384 7.55108C18 7.93974 18 8.40425 18 9.33325V10.8456C18 11.0083 18 11.0896 18.0065 11.1702C18.0152 11.2766 18.0323 11.3822 18.0578 11.4859C18.0771 11.5644 18.1028 11.6416 18.1542 11.7959L18.245 12.0683C19.0459 14.4708 19.4463 15.6721 18.8476 16.5027C18.249 17.3333 16.9828 17.3333 14.4503 17.3333H9.5497C7.01724 17.3333 5.75102 17.3333 5.15237 16.5027C4.55372 15.6721 4.95414 14.4708 5.75497 12.0683L5.8458 11.7959C5.89723 11.6416 5.92294 11.5644 5.94224 11.4859C5.96772 11.3822 5.98485 11.2766 5.99347 11.1702C6 11.0896 6 11.0083 6 10.8456V9.33325Z" stroke="#050505" stroke-width="1.8" stroke-linecap="round"/>
<path d="M9 17.3333C9 22.3333 15 21.8333 15 17.3333" stroke="#050505" stroke-width="1.8" stroke-linecap="round" stroke-linejoin="round"/>
</g>
</svg>
