<svg width="24" height="25" viewBox="0 0 24 25" fill="none" xmlns="http://www.w3.org/2000/svg">
<mask id="mask0_40_1387" style="mask-type:alpha" maskUnits="userSpaceOnUse" x="0" y="0" width="24" height="25">
<rect y="0.333252" width="24" height="24" fill="#D9D9D9"/>
</mask>
<g mask="url(#mask0_40_1387)">
<path d="M10.0207 4.96762C10.3522 2.68405 13.6478 2.68404 13.9793 4.96761L14.0717 5.60418C14.2574 6.88391 15.5905 7.65359 16.7917 7.1746L17.3892 6.93635C19.5326 6.08165 21.1803 8.93565 19.3685 10.3645L18.8634 10.7628C17.848 11.5636 17.848 13.1029 18.8634 13.9037L19.3685 14.302C21.1803 15.7309 19.5326 18.5849 17.3892 17.7302L16.7917 17.4919C15.5905 17.0129 14.2574 17.7826 14.0717 19.0623L13.9793 19.6989C13.6478 21.9825 10.3522 21.9825 10.0207 19.6989L9.92834 19.0623C9.74256 17.7826 8.40945 17.0129 7.20828 17.4919L6.6108 17.7302C4.46742 18.5849 2.81967 15.7309 4.63155 14.302L5.13662 13.9037C6.15202 13.1029 6.15202 11.5636 5.13662 10.7628L4.63155 10.3645C2.81967 8.93565 4.46742 6.08165 6.6108 6.93635L7.20828 7.1746C8.40945 7.65359 9.74256 6.88391 9.92834 5.60418L10.0207 4.96762Z" stroke="black" stroke-width="1.8"/>
<circle cx="12" cy="12.3333" r="3" stroke="black" stroke-width="1.8"/>
</g>
</svg>
