<svg width="24" height="25" viewBox="0 0 24 25" fill="none" xmlns="http://www.w3.org/2000/svg">
<mask id="mask0_1_111" style="mask-type:alpha" maskUnits="userSpaceOnUse" x="0" y="0" width="24" height="25">
<rect y="0.333282" width="24" height="24" fill="#D9D9D9"/>
</mask>
<g mask="url(#mask0_1_111)">
<path d="M10.0207 4.96765C10.3522 2.68408 13.6478 2.68407 13.9793 4.96765L14.0717 5.60421C14.2574 6.88394 15.5905 7.65362 16.7917 7.17463L17.3892 6.93638C19.5326 6.08168 21.1803 8.93568 19.3685 10.3645L18.8634 10.7629C17.848 11.5636 17.848 13.103 18.8634 13.9037L19.3685 14.302C21.1803 15.7309 19.5326 18.5849 17.3892 17.7302L16.7917 17.4919C15.5905 17.0129 14.2574 17.7826 14.0717 19.0624L13.9793 19.6989C13.6478 21.9825 10.3522 21.9825 10.0207 19.6989L9.92834 19.0624C9.74256 17.7826 8.40945 17.0129 7.20828 17.4919L6.6108 17.7302C4.46742 18.5849 2.81967 15.7309 4.63155 14.302L5.13662 13.9037C6.15202 13.103 6.15202 11.5636 5.13662 10.7629L4.63155 10.3646C2.81967 8.93568 4.46742 6.08168 6.6108 6.93638L7.20828 7.17463C8.40945 7.65362 9.74256 6.88394 9.92834 5.60421L10.0207 4.96765Z" stroke="black" stroke-width="1.8"/>
<circle cx="12" cy="12.3333" r="3" stroke="black" stroke-width="1.8"/>
</g>
</svg>
