<svg width="27" height="25" viewBox="0 0 27 25" fill="none" xmlns="http://www.w3.org/2000/svg">
<circle cx="7.0488" cy="11.0691" r="3.40244" stroke="white" stroke-width="1.8"/>
<path d="M1 20.5203C1 19.1935 2.89024 16.5508 7.04878 16.5508C11.2073 16.5508 13.0976 19.1975 13.0976 20.5203C13.0976 21.8432 10.8293 23.1667 7.04878 23.1667C3.26828 23.1667 1 21.8472 1 20.5203Z" stroke="white" stroke-width="1.8"/>
<circle cx="20.0488" cy="11.0691" r="3.40244" stroke="white" stroke-width="1.8"/>
<path d="M14 20.5203C14 19.1935 15.8902 16.5508 20.0488 16.5508C24.2073 16.5508 26.0976 19.1975 26.0976 20.5203C26.0976 21.8432 23.8293 23.1667 20.0488 23.1667C16.2683 23.1667 14 21.8472 14 20.5203Z" stroke="white" stroke-width="1.8"/>
<circle cx="13" cy="7.16667" r="4.5" fill="white" stroke="white" stroke-width="1.8"/>
<path d="M5 19.6667C5 17.9118 7.49999 14.4167 13 14.4167C18.5 14.4167 21 17.9171 21 19.6667C21 21.4162 18 23.1667 13 23.1667C7.99999 23.1667 5 21.4215 5 19.6667Z" fill="white" stroke="white" stroke-width="1.8"/>
</svg>
